<svg version="1.0" xmlns="http://www.w3.org/2000/svg" viewBox="0 0 820 732" fill="white">
  <path d="M409.5 4.5C404.1 27.2 401 36 392 54.8c-3.8 7.9-10.1 19.8-14.1 26.5-8 13.6-50.1 77.7-51 77.7-.4 0-2.7-3.5-5.2-7.8-17.1-29.3-47.9-58.2-79.9-75.1-10.6-5.6-25.5-11.7-26.3-10.9-.9.8-6.2 29.3-8.5 44.7-4.9 34.3-5.1 81.1-.4 104.3l.5 2.6-12.1-5.4c-34.5-15.4-65.9-23.5-97.4-25.1l-12.8-.6 5.4 5.1c11 10.4 18.1 27.8 24.3 59 4.4 22.8 10.6 58.4 10.2 58.8-.2.2-3.7 0-7.8-.6-4.1-.5-14.2-1-22.6-1-28.8 0-57.4 5.4-85.6 16.2l-7.8 3 5 5.2c6.4 6.8 9.4 11.6 23.3 37.1C42.6 392.9 47.4 401 54 410c6.3 8.5 17.4 19.1 23 22l4.5 2.3-5.5 2.5c-13.9 6.2-34.9 9.2-48.2 6.9-6-1-6-.7-.5 10.3 6.1 12.2 11.1 19.4 19.7 28.1 16.8 17.1 39.3 27.7 69.8 33 15.4 2.6 17.2 2.3 7.8-1.2-19.9-7.5-33.1-14.5-40.8-21.7-2.7-2.5-4.8-4.8-4.8-5.2 0-.4 5.3-1 11.8-1.3 18.7-1 35-4.4 77.1-16.2 54.4-15.2 64.2-16.9 95.1-16.9 22.8 0 23.8 0 32.5 2.7 5 1.5 15.3 5.9 23 9.7 20.3 9.9 35 20.1 64.5 44.5 14.6 12.1 20.6 16.2 21.7 15.1 1.3-1.3-1.4-8.6-8.8-23.6-4.6-9.2-8.9-19.6-10-23.9-5.6-21.7-2.4-51.8 7.6-72.7 10-20.8 21.8-21.8 31.8-2.7 7.5 14.6 11.1 31 11.1 51.8.1 19.7-1.7 26.9-11.6 46.3-15.5 30.6-13.9 31.4 16 7.4 29.7-23.8 44.4-34 62.7-43.2 22-11.2 33.8-13.5 60.5-12.1 27.6 1.5 41.4 4.3 95.5 19.6 31.4 8.8 53.6 13.4 69.3 14.2 6.7.3 12.2.9 12.2 1.3 0 1.3-7.5 8.1-12.8 11.6-6.5 4.3-18.9 10.3-31.4 15l-9.3 3.4 6-.5c16.1-1.6 39.5-8 51.9-14.2 15.2-7.6 29.7-20 38.5-32.8 4.7-6.7 14.4-25.5 13.7-26.2-.2-.2-3.8.2-8.1.8-10.4 1.6-23.2 0-37.3-4.6-13.2-4.3-14.5-5-11.2-6.3 4.8-1.8 14.8-10.2 20.2-16.9 8.7-10.7 15.3-21.2 27.1-42.7 15.1-27.8 20.3-36.2 25.9-42 2.6-2.7 4.5-5.3 4.1-5.7-1.6-1.4-20.6-8-31.5-10.9-19.3-5.1-33.6-7.1-54.3-7.7-12.1-.4-22.2-.1-27.9.6-4.8.7-8.9 1.1-9.1.9-.3-.4 5.9-36.1 10-56.8 6.5-33.1 12.7-49.1 23.6-60.2l6-6.1-12.8.6c-30.2 1.5-63.8 10.2-97.7 25.4-5.4 2.4-10.1 4.2-10.3 3.9-.3-.3 0-4.7.7-9.8 1.8-14.2 2.4-54.2 1.1-70.3-1.7-19.5-7.8-58.7-10.7-68.8-.7-2.4-1.4-2.2-12.3 2.4-27.8 11.8-55.9 32.6-75.9 56.2-5.8 6.8-17.9 23.9-22.8 32.3-1 1.7-4.1-2.6-24-32.6-37.5-56.6-50.8-82.6-57.9-113.5-2-8.6-2.4-9.6-3-7zm11 86.5c5.4 10.2 17.9 33.1 27.8 51 35.8 64.8 49.5 93.1 58.9 121.5 19.8 60.4 12.1 114.3-26.2 183-7.8 14-9 15.3-7.9 8.8 1.3-8.2 1-36.5-.6-49-3.2-24.3-10.7-52.5-25-93.8-22.9-66.1-29-85.2-34.5-108.8-1.5-6.7-3-11.5-3.3-10.7-.2.8-2.3 9.1-4.5 18.5-5.1 21-10.3 37.6-27 85.5-18.5 53.3-24.9 75.6-29.2 101.1-2.5 14.6-3.7 44-2.2 54.4.5 3.8.9 7.1.7 7.3-.8.9-15.9-27.1-22.8-42.3-25.1-55.6-28.6-103.2-11.4-154.8 9-26.8 18.7-46.8 51.3-105.3 12.2-22.1 27.5-50.3 33.9-62.8 6.5-12.5 11.8-22.6 12-22.4.1.2 4.6 8.6 10 18.8zm-177.8 6c15.8 7.7 35.1 24.5 50.6 44 7.9 9.9 23.7 33.2 23.7 35 0 .6-3.3 7.3-7.4 14.8-9.9 18.2-20 39.1-23 47.7-2.8 8-2.4 8.7-5.7-10-1.1-6.6-3.8-19.1-6-27.7-4.8-19-15.7-51.7-15.9-47.5 0 .4 1.5 7.6 3.4 16 4.2 18.6 8.9 42.6 11.1 56.7 1.8 12.2 4.4 36.3 3.9 36.9-.2.2-2.9-2-6.1-4.9-8.4-7.8-25.1-19.9-36.8-26.9l-10.2-6.1-.6-5.2c-4.3-37.4-3.3-90.2 2.3-115.3 2.7-12.4 2.9-12.7 5.8-12.1 1.5.4 6.4 2.4 10.9 4.6zm350.5 2.5c6.4 25.3 8.3 68.8 4.8 107.3-1.7 18.6-1.8 18.9-5.3 20.3-5.7 2.4-29.1 18.6-39.6 27.4l-10.4 8.8.7-8.4c1.8-21.4 8.7-61.4 15.7-90.8 4.4-18.6 3.6-17.8-4 4.1-7.5 22-14 48.2-17.9 72.3l-.8 5-2.3-6.5c-4.3-11.7-22.8-49-30.4-61.1-.8-1.3.1-3.4 3.9-9.5 15.3-24.7 41.2-53.3 58.7-64.8 9-6 21.1-11.8 23.7-11.3 1 .1 2.1 2.7 3.2 7.2zM134.5 210.4c35.1 8.6 76.5 27.9 102.9 47.9 9 6.8 23 20.7 25.2 24.8 2.2 4.3 4.2 18.5 5.9 41.9 2.4 33.8 5.2 51.4 9.9 64.5 1.4 3.8 2.4 7.1 2.2 7.2-.2.2-2.9-2.2-6.1-5.4-7.6-7.6-18.8-22.7-30-40.5-14.3-22.9-27.2-42.6-33.3-50.7-5.7-7.6-23.2-26.5-23.9-25.7-.2.2 2.7 4.4 6.4 9.4 13.3 17.8 32 48.8 47 78.2 4.7 9 10.1 18.7 12.1 21.5 2 2.7 12.2 13.8 22.7 24.5 16.6 16.9 29.5 32.3 29.5 35.2 0 .5-2.8-1-6.1-3.3-10-6.8-21.5-11.5-51.5-21.5-41.7-13.7-54.7-20.9-68-37.7-7.5-9.5-17.7-29.4-22.3-43.5-3.6-11-8.3-31.9-14.5-63.7-5.1-26-10.5-44-17-56.8-5.2-10.1-5.7-9.8 8.9-6.3zm564.5-.9c0 .3-1.7 4-3.9 8.3-8 16-12.3 31-21.1 74.2-3.3 16.2-7.3 34.2-9 40-13.1 45.6-31.8 66.9-71 80.8-4.7 1.7-17 5.8-27.5 9.1-21.3 6.9-35.4 12.8-44.6 19-3.4 2.3-6.4 4-6.5 3.8-1.3-1.3 12.9-18.2 29.6-35.2 21.5-22 25.2-26.9 35.7-48 14.3-28.4 34.5-61.4 51.5-84 3.6-4.7-6.6 4.4-12.9 11.5-10.8 12.4-17.5 22-40 57.7-7.7 12.2-17.2 26.3-21.1 31.5-7.1 9.4-19.2 22.1-19.2 20.2 0-.6 1.1-4.3 2.5-8.3 7-20.6 10.2-40.2 11-68.1 1-31.6 2.7-36.4 16.9-50.5 10.4-10.3 22.3-18.9 39.3-28.7 22.3-12.8 55.2-25.9 78.5-31.3 11.6-2.7 11.8-2.7 11.8-2zM104.8 325c10.6 1 22.3 3.2 25 4.9.6.3 2.7 6 4.7 12.4 4.2 14 9.3 27.2 14.7 38.1l3.9 7.9-3.3 3.5c-4.1 4.2-21.1 18.3-29.8 24.5-5.4 4-7.1 4.7-11.1 4.7-11.4 0-26.3-7.9-36.8-19.7-8.3-9.2-14.9-19.1-29.1-43.7-10-17.4-12.8-23.1-11.8-23.7 3.9-2.4 30.6-7.5 46.3-8.8 14.4-1.2 14.9-1.2 27.3-.1zm649.2 1.1c10.3 1.1 29.2 4.9 35.3 7.1l3.7 1.3-2.3 3.5c-1.3 1.9-7 11.6-12.7 21.5-17.5 30.7-28.6 45.1-41.1 53.4-7.1 4.7-17 8.1-23.9 8.1-4.4 0-5.5-.6-16.3-8.8-14.4-10.9-26.7-21.9-26.7-23.8 0-.8 1-3.4 2.1-5.7 4.1-7.9 12.8-30.7 16-41.5 1.7-5.9 3.6-11 4.2-11.4 2.5-1.5 15.1-4 23.9-4.8 10.1-.8 23-.4 37.8 1.1zm-76.2 89.2c34.9 29.2 81.7 47.2 104.6 40.3l4.8-1.5-1.9 2.2c-6.5 7.5-15.6 12.2-26.6 13.8-15.6 2.3-32.7-1.6-80.2-18.4-14.8-5.2-31.7-10.9-37.5-12.7-5.8-1.7-11.1-3.3-11.8-3.6-.7-.2 1.1-2.5 4.4-5.5 7.6-6.9 16.5-17 21.7-24.5l4.2-6.2 6.9 6.2c3.7 3.3 8.9 7.8 11.4 9.9zm-510.5-7c5.9 8.2 16.3 19.2 22.1 23.7 2.5 1.9 4.5 3.8 4.6 4.1 0 .3-3 1.4-6.7 2.4-3.8 1-23.7 7.3-44.3 14-50 16.4-66 19.8-81.9 17.5-4.1-.6-9.4-1.9-11.9-3.1-5.1-2.2-15.2-9.5-15.2-10.9 0-.4 1.7-.3 3.8.3 5.3 1.5 20.4 1.2 29.5-.8 27.8-5.8 64.1-25.6 88.2-47.9 3.3-3 6.3-5.5 6.6-5.6.3 0 2.6 2.8 5.2 6.3z"/>
  <path d="M293.6 477.6c-78.1 52.2-148 85.8-196.6 94.5-14.1 2.6-33.4 2.3-41.4-.6-6.8-2.5-13.2-9-14.1-14.3-1.2-7.5 3.7-17.2 11.7-23.1 3.4-2.5 3.8-3.1 2.1-3.1-8.7 0-23 10.7-28 20.8-2.5 5-2.8 6.8-2.8 15.2 0 8.7.3 10 3 14.9 7 12.6 21.2 19.1 42.1 19.1 23.1 0 48.8-7.5 82.4-24.1 41.2-20.3 83.8-49.1 138.5-93.8 21.4-17.5 21.6-17.9 3.1-5.5zM517.5 473.5c8.6 7.9 33 27.4 52 41.7 64.2 48.4 120.7 78.1 162.4 85.3 9.9 1.8 26.9 1.9 34.3.4 12.6-2.6 23.6-10.6 27.8-20.2 7.8-17.6-2.4-39.5-21.5-46.6-8.7-3.3-9.6-2.7-3.8 2.4 16.9 14.8 12.2 32.7-9.8 37.5-7.8 1.7-29.8.7-41.9-1.9-47.6-10.4-111.8-41.8-188.5-92.3-8.6-5.7-13.3-8.3-11-6.3zM249 637.1v89l5.3-.3 5.2-.3.5-66.4.5-66.3 26 59.1c14.3 32.5 26.2 58.7 26.6 58.3.3-.4 11.4-27.1 24.5-59.5l23.9-58.7.5 66.7.5 66.8h26l-.2-88.5-.1-88.5-8.9-.3-8.8-.2-24.4 60.5c-13.5 33.3-24.6 60.5-24.6 60.5-.1 0-11.6-27.2-25.6-60.5L270.5 548H249v89.1zM429.2 636.7l.3 88.8h82l.3-2.3.3-2.2H456V548h-27l.2 88.7zM545 637v89.1l13.3-.3 13.2-.3.3-88.8.2-88.7h-27v89z"/>
</svg>
