<?xml version="1.0" ?>

<!-- Uploaded to: SVG Repo, www.svgrepo.com, Generator: SVG Repo Mixer Tools -->
<svg fill="#AEF6C7" width="800px" height="800px" viewBox="0 0 512 512" version="1.1" xml:space="preserve" xmlns="http://www.w3.org/2000/svg" xmlns:xlink="http://www.w3.org/1999/xlink">

<g id="give_love-hand-heart-love-valentine">

<path d="M430.16,286.16c10.24,9.36,9.6,26.08-0.24,35.92l-84.53,84.53c-6.012,6.012-14.167,9.39-22.67,9.39H173.28   c-14.192,0-21.375,7.609-32.021,18.627c-3.535,3.659-8.651,5.486-13.695,4.822C96.194,435.323,72,408.5,72,376v-33.373   c0-4.244,1.686-8.313,4.687-11.314l25.923-25.923c6.012-6.012,14.167-9.39,22.67-9.39h45.44c26.16,0,24.32,24,50.56,24H280   c12.56,0,24,10.16,24,24c0,13.12-10.48,24-24,24H176c0,8.8,7.2,16,16,16h94.905c8.487,0,16.626-3.372,22.627-9.373l87.587-87.587   c4.64-4.64,10.8-7.04,16.96-7.04C419.84,280,425.6,282.08,430.16,286.16z M164.48,179.2c-23.68-24-27.76-62.48-7.2-89.2   c24.8-32.32,71.04-34.48,98.72-6.48c27.68-28,73.92-25.84,98.72,6.48c7.957,10.351,12.19,22.535,13.035,34.898   c24.141-10.574,52.367-3.454,68.667,17.747c17.531,22.824,14.914,56.086-6.086,77.371c0,0.004-0.008,0.004-0.008,0.008   l-48.719,49.281c-6.859,6.914-15.953,10.715-25.609,10.715s-18.75-3.801-25.602-10.703l-36.011-36.427l-11.828,11.99   c-14.64,14.8-38.48,14.8-53.12,0L164.48,179.2z M293.055,208.781l48.711,49.273c7.625,7.688,20.836,7.699,28.477-0.012   l48.711-49.27c15.406-15.625,17.469-39.863,4.781-56.383c-12.398-16.125-34.328-21.02-52.156-11.637   c-3.57,2.023-6.977,4.598-9.922,7.543c-1.5,1.5-3.531,2.344-5.656,2.344c-0.008,0-0.016,0-0.023,0   c-2.133-0.008-4.172-0.863-5.664-2.375c-7.773-7.863-18.313-12.254-29.227-12.254c-0.836,0-1.68,0.027-2.523,0.078   c-12.023,0.746-22.789,6.539-30.297,16.309C275.578,168.91,277.641,193.152,293.055,208.781z M98.272,237.585   c3.14,3.219,8.315,3.219,11.455,0l19.952-20.46c7.017-7.196,8.387-18.749,2.104-26.594c-7.145-8.922-20.021-9.403-27.784-1.442   c-7.763-7.96-20.64-7.479-27.784,1.442c-6.283,7.845-4.913,19.398,2.104,26.594L98.272,237.585z"/>

</g>

<g id="Layer_1"/>

</svg>
